# Blender 4.5.1 LTS
# www.blender.org
mtllib LeftLeg.mtl
o LeftLeg
v 0.000000 0.072000 0.464000
v -0.060000 0.000000 0.440000
v -0.036923 0.071538 0.500000
v -0.017761 0.020938 0.451043
v -0.020654 0.030333 0.479527
v -0.049350 0.020809 0.482245
v -0.010804 0.071772 0.489440
v -0.036000 0.072000 -0.500000
v -0.060000 -0.000000 -0.440000
v 0.000000 0.071538 -0.463077
v -0.048957 0.020938 -0.482239
v -0.020473 0.030333 -0.479346
v -0.017755 0.020809 -0.450650
v -0.010560 0.071772 -0.489196
v -1.000000 0.072000 -0.464000
v -0.940000 -0.000000 -0.440000
v -0.963077 0.071538 -0.500000
v -0.982239 0.020938 -0.451043
v -0.979346 0.030333 -0.479527
v -0.950650 0.020809 -0.482245
v -0.989196 0.071772 -0.489440
v -0.964000 0.072000 0.500000
v -0.940000 0.000000 0.440000
v -1.000000 0.071538 0.463077
v -0.951043 0.020938 0.482239
v -0.979527 0.030333 0.479346
v -0.982245 0.020809 0.450650
v -0.989440 0.071772 0.489196
v -0.036000 1.928000 0.500000
v -0.060000 2.000000 0.440000
v 0.000000 1.928462 0.463077
v -0.048957 1.979062 0.482239
v -0.020473 1.969667 0.479346
v -0.017755 1.979191 0.450650
v -0.010560 1.928228 0.489196
v -0.060000 2.000000 -0.440000
v -0.036923 1.928462 -0.500000
v 0.000000 1.928000 -0.464000
v -0.049350 1.979191 -0.482245
v -0.020654 1.969667 -0.479527
v -0.010804 1.928228 -0.489440
v -0.017761 1.979062 -0.451043
v -0.940000 2.000000 -0.440000
v -1.000000 1.928462 -0.463077
v -0.964000 1.928000 -0.500000
v -0.982245 1.979191 -0.450650
v -0.979527 1.969667 -0.479346
v -0.989440 1.928228 -0.489196
v -0.951043 1.979062 -0.482239
v -0.940000 2.000000 0.440000
v -0.963077 1.928462 0.500000
v -1.000000 1.928000 0.464000
v -0.950650 1.979191 0.482245
v -0.979346 1.969667 0.479527
v -0.989196 1.928228 0.489440
v -0.982239 1.979062 0.451043
vn 0.9691 -0.1677 0.1807
vn 0.6943 -0.1809 0.6965
vn 0.5852 -0.5565 0.5897
vn 0.7066 -0.6871 0.1690
vn 0.1914 -0.9627 0.1910
vn 0.1673 -0.6874 0.7067
vn 0.1779 -0.1685 0.9695
vn 0.1807 -0.1677 -0.9691
vn 0.6965 -0.1809 -0.6943
vn 0.5897 -0.5565 -0.5852
vn 0.1690 -0.6871 -0.7066
vn 0.1910 -0.9627 -0.1914
vn 0.7067 -0.6874 -0.1673
vn 0.9695 -0.1685 -0.1779
vn -0.9691 -0.1677 -0.1807
vn -0.6943 -0.1809 -0.6965
vn -0.5852 -0.5565 -0.5897
vn -0.7066 -0.6871 -0.1690
vn -0.1914 -0.9627 -0.1910
vn -0.1673 -0.6874 -0.7067
vn -0.1779 -0.1685 -0.9695
vn -0.1807 -0.1677 0.9691
vn -0.6965 -0.1809 0.6943
vn -0.5897 -0.5565 0.5852
vn -0.1690 -0.6871 0.7066
vn -0.1910 -0.9627 0.1914
vn -0.7067 -0.6874 0.1673
vn -0.9695 -0.1685 0.1779
vn 0.1807 0.1677 0.9691
vn 0.6965 0.1809 0.6943
vn 0.5897 0.5565 0.5852
vn 0.1690 0.6871 0.7066
vn 0.1910 0.9627 0.1914
vn 0.7067 0.6874 0.1673
vn 0.9695 0.1685 0.1779
vn 0.1914 0.9627 -0.1910
vn 0.7066 0.6871 -0.1690
vn 0.5852 0.5565 -0.5897
vn 0.1673 0.6874 -0.7067
vn 0.1779 0.1685 -0.9695
vn 0.6943 0.1809 -0.6965
vn 0.9691 0.1677 -0.1807
vn -0.1910 0.9627 -0.1914
vn -0.1690 0.6871 -0.7066
vn -0.5897 0.5565 -0.5852
vn -0.7067 0.6874 -0.1673
vn -0.9695 0.1685 -0.1779
vn -0.6965 0.1809 -0.6943
vn -0.1807 0.1677 -0.9691
vn -0.1914 0.9627 0.1910
vn -0.7066 0.6871 0.1690
vn -0.5852 0.5565 0.5897
vn -0.1673 0.6874 0.7067
vn -0.1779 0.1685 0.9695
vn -0.6943 0.1809 0.6965
vn -0.9691 0.1677 0.1807
vt 0.967814 0.160721
vt 0.971497 0.160696
vt 0.969403 0.152943
vt 0.966488 0.152943
vt 0.535294 0.136776
vt 0.529152 0.137946
vt 0.531267 0.143128
vt 0.534204 0.143128
vt 0.533470 0.159654
vt 0.534755 0.151818
vt 0.529650 0.155141
vt 0.529650 0.159680
vt 0.854459 0.160449
vt 0.858128 0.160425
vt 0.856042 0.152657
vt 0.853139 0.152657
vt 0.535294 0.043616
vt 0.534164 0.037264
vt 0.529152 0.039450
vt 0.529152 0.042489
vt 0.872953 0.160671
vt 0.874224 0.152943
vt 0.869174 0.156220
vt 0.869175 0.160696
vt 0.742013 0.159015
vt 0.745683 0.158989
vt 0.743596 0.151118
vt 0.740692 0.151118
vt 0.625379 0.043616
vt 0.631522 0.042447
vt 0.629407 0.037264
vt 0.626469 0.037264
vt 0.759997 0.160399
vt 0.761263 0.152657
vt 0.756234 0.155939
vt 0.756234 0.160425
vt 0.629377 0.159705
vt 0.633102 0.159680
vt 0.630984 0.151818
vt 0.628037 0.151818
vt 0.625379 0.136776
vt 0.626510 0.143128
vt 0.631522 0.140943
vt 0.631522 0.137904
vt 0.647512 0.158964
vt 0.648778 0.151118
vt 0.643748 0.154445
vt 0.643748 0.158989
vt 0.533374 0.363006
vt 0.529650 0.363031
vt 0.531768 0.370893
vt 0.534715 0.370893
vt 0.534861 0.384757
vt 0.533722 0.378320
vt 0.528674 0.380536
vt 0.528674 0.383615
vt 0.967719 0.361265
vt 0.966448 0.368993
vt 0.971497 0.365717
vt 0.971498 0.361240
vt 0.534861 0.479164
vt 0.528674 0.480349
vt 0.530804 0.485601
vt 0.533762 0.485601
vt 0.854365 0.361378
vt 0.853099 0.369121
vt 0.858128 0.365838
vt 0.858128 0.361353
vt 0.872858 0.361215
vt 0.869174 0.361240
vt 0.871269 0.368993
vt 0.874184 0.368993
vt 0.625614 0.479164
vt 0.626753 0.485601
vt 0.631802 0.483385
vt 0.631802 0.480307
vt 0.741919 0.362618
vt 0.740652 0.370464
vt 0.745683 0.367137
vt 0.745683 0.362593
vt 0.759902 0.361328
vt 0.756234 0.361353
vt 0.758320 0.369121
vt 0.761223 0.369121
vt 0.625614 0.384757
vt 0.631802 0.383572
vt 0.629671 0.378320
vt 0.626712 0.378320
vt 0.629282 0.363057
vt 0.627997 0.370893
vt 0.633102 0.367570
vt 0.633102 0.363031
vt 0.647417 0.362568
vt 0.643748 0.362592
vt 0.645835 0.370464
vt 0.648738 0.370464
s 1
usemtl LeftLeg
f 1/1/1 7/2/2 5/3/3 4/4/4
f 2/5/5 4/6/4 5/7/3 6/8/6
f 3/9/7 6/10/6 5/11/3 7/12/2
f 8/13/8 14/14/9 12/15/10 11/16/11
f 9/17/12 11/18/11 12/19/10 13/20/13
f 10/21/14 13/22/13 12/23/10 14/24/9
f 15/25/15 21/26/16 19/27/17 18/28/18
f 16/29/19 18/30/18 19/31/17 20/32/20
f 17/33/21 20/34/20 19/35/17 21/36/16
f 22/37/22 28/38/23 26/39/24 25/40/25
f 23/41/26 25/42/25 26/43/24 27/44/27
f 24/45/28 27/46/27 26/47/24 28/48/23
f 29/49/29 35/50/30 33/51/31 32/52/32
f 30/53/33 32/54/32 33/55/31 34/56/34
f 31/57/35 34/58/34 33/59/31 35/60/30
f 36/61/36 42/62/37 40/63/38 39/64/39
f 37/65/40 39/66/39 40/67/38 41/68/41
f 38/69/42 41/70/41 40/71/38 42/72/37
f 43/73/43 49/74/44 47/75/45 46/76/46
f 44/77/47 46/78/46 47/79/45 48/80/48
f 45/81/49 48/82/48 47/83/45 49/84/44
f 50/85/50 56/86/51 54/87/52 53/88/53
f 51/89/54 53/90/53 54/91/52 55/92/55
f 52/93/56 55/94/55 54/95/52 56/96/51
f 3/9/7 7/12/2 35/50/30 29/49/29
f 7/2/2 1/1/1 31/57/35 35/60/30
f 30/53/33 34/56/34 42/62/37 36/61/36
f 34/58/34 31/57/35 38/69/42 42/72/37
f 37/65/40 41/68/41 14/14/9 8/13/8
f 41/70/41 38/69/42 10/21/14 14/24/9
f 9/17/12 13/20/13 4/6/4 2/5/5
f 13/22/13 10/21/14 1/1/1 4/4/4
f 36/61/36 39/64/39 49/74/44 43/73/43
f 39/66/39 37/65/40 45/81/49 49/84/44
f 44/77/47 48/80/48 21/26/16 15/25/15
f 48/82/48 45/81/49 17/33/21 21/36/16
f 16/29/19 20/32/20 11/18/11 9/17/12
f 20/34/20 17/33/21 8/13/8 11/16/11
f 43/73/43 46/76/46 56/86/51 50/85/50
f 46/78/46 44/77/47 52/93/56 56/96/51
f 51/89/54 55/92/55 28/38/23 22/37/22
f 55/94/55 52/93/56 24/45/28 28/48/23
f 23/41/26 27/44/27 18/30/18 16/29/19
f 27/46/27 24/45/28 15/25/15 18/28/18
f 50/85/50 53/88/53 32/54/32 30/53/33
f 53/90/53 51/89/54 29/49/29 32/52/32
f 2/5/5 6/8/6 25/42/25 23/41/26
f 6/10/6 3/9/7 22/37/22 25/40/25
f 29/49/29 22/37/22 3/9/7
f 38/69/42 1/1/1 10/21/14
f 38/69/42 31/57/35 1/1/1
f 9/17/12 2/5/5 23/41/26
f 9/17/12 23/41/26 16/29/19
f 45/81/49 8/13/8 17/33/21
f 45/81/49 37/65/40 8/13/8
f 52/93/56 15/25/15 24/45/28
f 52/93/56 44/77/47 15/25/15
f 29/49/29 51/89/54 22/37/22
f 43/73/43 50/85/50 30/53/33
f 43/73/43 30/53/33 36/61/36
