# Blender 4.5.1 LTS
# www.blender.org
mtllib LeftArm.mtl
o Left_Arm
v -2.000000 2.072000 0.464000
v -1.940000 2.000000 0.440000
v -1.963077 2.071538 0.500000
v -1.982239 2.020938 0.451043
v -1.979346 2.030333 0.479527
v -1.950650 2.020809 0.482245
v -1.989197 2.071772 0.489440
v -1.964000 2.072000 -0.500000
v -1.940000 2.000000 -0.440000
v -2.000000 2.071538 -0.463077
v -1.951043 2.020938 -0.482239
v -1.979527 2.030333 -0.479346
v -1.982245 2.020809 -0.450650
v -1.989440 2.071772 -0.489196
v -1.000000 2.072000 -0.464000
v -1.060000 2.000000 -0.440000
v -1.036923 2.071538 -0.500000
v -1.017761 2.020938 -0.451043
v -1.020654 2.030333 -0.479527
v -1.049350 2.020809 -0.482245
v -1.010803 2.071772 -0.489440
v -1.036000 2.072000 0.500000
v -1.060000 2.000000 0.440000
v -1.000000 2.071538 0.463077
v -1.048957 2.020938 0.482239
v -1.020473 2.030333 0.479346
v -1.017755 2.020809 0.450650
v -1.010560 2.071772 0.489196
v -1.964000 3.928000 0.500000
v -1.940000 4.000000 0.440000
v -2.000000 3.928462 0.463077
v -1.951043 3.979062 0.482239
v -1.979527 3.969667 0.479346
v -1.982245 3.979191 0.450650
v -1.989440 3.928228 0.489196
v -1.940000 4.000000 -0.440000
v -1.963077 3.928462 -0.500000
v -2.000000 3.928000 -0.464000
v -1.950650 3.979191 -0.482245
v -1.979346 3.969667 -0.479527
v -1.989197 3.928228 -0.489440
v -1.982239 3.979062 -0.451043
v -1.060000 4.000000 -0.440000
v -1.000000 3.928462 -0.463077
v -1.036000 3.928000 -0.500000
v -1.017755 3.979191 -0.450650
v -1.020473 3.969667 -0.479346
v -1.010560 3.928228 -0.489196
v -1.048957 3.979062 -0.482239
v -1.060000 4.000000 0.440000
v -1.036923 3.928462 0.500000
v -1.000000 3.928000 0.464000
v -1.049350 3.979191 0.482245
v -1.020654 3.969667 0.479527
v -1.010803 3.928228 0.489440
v -1.017761 3.979062 0.451043
vn -0.9691 -0.1677 0.1807
vn -0.7066 -0.6871 0.1690
vn -0.5852 -0.5565 0.5897
vn -0.6943 -0.1809 0.6965
vn -0.1914 -0.9627 0.1910
vn -0.1673 -0.6874 0.7067
vn -0.1779 -0.1685 0.9695
vn -0.1807 -0.1677 -0.9691
vn -0.1690 -0.6871 -0.7066
vn -0.5897 -0.5565 -0.5852
vn -0.6966 -0.1809 -0.6943
vn -0.1910 -0.9627 -0.1914
vn -0.7067 -0.6874 -0.1673
vn -0.9695 -0.1685 -0.1779
vn 0.9691 -0.1677 -0.1807
vn 0.7066 -0.6871 -0.1690
vn 0.5852 -0.5565 -0.5897
vn 0.6943 -0.1809 -0.6965
vn 0.1914 -0.9627 -0.1910
vn 0.1673 -0.6874 -0.7067
vn 0.1779 -0.1685 -0.9695
vn 0.1807 -0.1677 0.9691
vn 0.1690 -0.6871 0.7066
vn 0.5897 -0.5565 0.5852
vn 0.6966 -0.1809 0.6943
vn 0.1910 -0.9627 0.1914
vn 0.7067 -0.6874 0.1673
vn 0.9695 -0.1685 0.1779
vn -0.1807 0.1677 0.9691
vn -0.1690 0.6871 0.7066
vn -0.5897 0.5565 0.5852
vn -0.6965 0.1809 0.6943
vn -0.1910 0.9627 0.1914
vn -0.7067 0.6874 0.1673
vn -0.9695 0.1685 0.1779
vn -0.1914 0.9627 -0.1910
vn -0.1673 0.6874 -0.7067
vn -0.5852 0.5565 -0.5897
vn -0.7066 0.6871 -0.1690
vn -0.1779 0.1685 -0.9695
vn -0.6943 0.1809 -0.6965
vn -0.9691 0.1677 -0.1807
vn 0.1910 0.9627 -0.1914
vn 0.7067 0.6874 -0.1673
vn 0.5897 0.5565 -0.5852
vn 0.1690 0.6871 -0.7066
vn 0.9695 0.1685 -0.1779
vn 0.6965 0.1809 -0.6943
vn 0.1807 0.1677 -0.9691
vn 0.1914 0.9627 0.1910
vn 0.1673 0.6874 0.7067
vn 0.5852 0.5565 0.5897
vn 0.7066 0.6871 0.1690
vn 0.1779 0.1685 0.9695
vn 0.6943 0.1809 0.6965
vn 0.9691 0.1677 0.1807
vt 0.645476 0.158934
vt 0.646838 0.151028
vt 0.643844 0.151028
vt 0.641692 0.158909
vt 0.626170 0.137081
vt 0.627267 0.143464
vt 0.630221 0.143464
vt 0.632349 0.138256
vt 0.629896 0.158955
vt 0.633780 0.158980
vt 0.633780 0.154434
vt 0.628589 0.151106
vt 0.758227 0.157683
vt 0.759600 0.149718
vt 0.756581 0.149718
vt 0.754410 0.157657
vt 0.626170 0.043454
vt 0.632349 0.042321
vt 0.632349 0.039268
vt 0.627307 0.037071
vt 0.742913 0.158883
vt 0.746794 0.158909
vt 0.746794 0.154358
vt 0.741607 0.151028
vt 0.870998 0.158010
vt 0.872363 0.150048
vt 0.869361 0.150048
vt 0.867203 0.157984
vt 0.535550 0.043454
vt 0.534453 0.037071
vt 0.531498 0.037071
vt 0.529371 0.042279
vt 0.856499 0.157632
vt 0.860413 0.157657
vt 0.860413 0.153074
vt 0.855182 0.149718
vt 0.532379 0.159005
vt 0.533742 0.151106
vt 0.530746 0.151106
vt 0.528592 0.158980
vt 0.535550 0.137081
vt 0.529370 0.138214
vt 0.529371 0.141267
vt 0.534412 0.143464
vt 0.968708 0.157959
vt 0.972599 0.157984
vt 0.972599 0.153402
vt 0.967398 0.150048
vt 0.629993 0.362628
vt 0.628631 0.370527
vt 0.631627 0.370527
vt 0.633780 0.362653
vt 0.625354 0.384885
vt 0.631442 0.383753
vt 0.631442 0.380705
vt 0.626474 0.378511
vt 0.645573 0.362788
vt 0.641692 0.362762
vt 0.641692 0.367312
vt 0.646879 0.370643
vt 0.625354 0.478369
vt 0.626435 0.484742
vt 0.629346 0.484742
vt 0.631442 0.479542
vt 0.758324 0.363030
vt 0.754410 0.363004
vt 0.754410 0.367588
vt 0.759642 0.370943
vt 0.743010 0.362737
vt 0.741648 0.370643
vt 0.744642 0.370643
vt 0.746794 0.362762
vt 0.536060 0.478368
vt 0.529972 0.479500
vt 0.529972 0.482548
vt 0.534940 0.484742
vt 0.871095 0.363299
vt 0.867203 0.363273
vt 0.867203 0.367855
vt 0.872405 0.371210
vt 0.856597 0.362979
vt 0.855224 0.370943
vt 0.858243 0.370943
vt 0.860413 0.363004
vt 0.536060 0.384885
vt 0.534979 0.378511
vt 0.532068 0.378511
vt 0.529972 0.383712
vt 0.532476 0.362679
vt 0.528592 0.362653
vt 0.528592 0.367199
vt 0.533783 0.370527
vt 0.968805 0.363248
vt 0.967439 0.371210
vt 0.970442 0.371210
vt 0.972599 0.363273
s 1
usemtl RightArm
f 1/1/1 4/2/2 5/3/3 7/4/4
f 2/5/5 6/6/6 5/7/3 4/8/2
f 3/9/7 7/10/4 5/11/3 6/12/6
f 8/13/8 11/14/9 12/15/10 14/16/11
f 9/17/12 13/18/13 12/19/10 11/20/9
f 10/21/14 14/22/11 12/23/10 13/24/13
f 15/25/15 18/26/16 19/27/17 21/28/18
f 16/29/19 20/30/20 19/31/17 18/32/16
f 17/33/21 21/34/18 19/35/17 20/36/20
f 22/37/22 25/38/23 26/39/24 28/40/25
f 23/41/26 27/42/27 26/43/24 25/44/23
f 24/45/28 28/46/25 26/47/24 27/48/27
f 29/49/29 32/50/30 33/51/31 35/52/32
f 30/53/33 34/54/34 33/55/31 32/56/30
f 31/57/35 35/58/32 33/59/31 34/60/34
f 36/61/36 39/62/37 40/63/38 42/64/39
f 37/65/40 41/66/41 40/67/38 39/68/37
f 38/69/42 42/70/39 40/71/38 41/72/41
f 43/73/43 46/74/44 47/75/45 49/76/46
f 44/77/47 48/78/48 47/79/45 46/80/44
f 45/81/49 49/82/46 47/83/45 48/84/48
f 50/85/50 53/86/51 54/87/52 56/88/53
f 51/89/54 55/90/55 54/91/52 53/92/51
f 52/93/56 56/94/53 54/95/52 55/96/55
f 3/9/7 29/49/29 35/52/32 7/10/4
f 7/4/4 35/58/32 31/57/35 1/1/1
f 30/53/33 36/61/36 42/64/39 34/54/34
f 34/60/34 42/70/39 38/69/42 31/57/35
f 37/65/40 8/13/8 14/16/11 41/66/41
f 41/72/41 14/22/11 10/21/14 38/69/42
f 9/17/12 2/5/5 4/8/2 13/18/13
f 13/24/13 4/2/2 1/1/1 10/21/14
f 36/61/36 43/73/43 49/76/46 39/62/37
f 39/68/37 49/82/46 45/81/49 37/65/40
f 44/77/47 15/25/15 21/28/18 48/78/48
f 48/84/48 21/34/18 17/33/21 45/81/49
f 16/29/19 9/17/12 11/20/9 20/30/20
f 20/36/20 11/14/9 8/13/8 17/33/21
f 43/73/43 50/85/50 56/88/53 46/74/44
f 46/80/44 56/94/53 52/93/56 44/77/47
f 51/89/54 22/37/22 28/40/25 55/90/55
f 55/96/55 28/46/25 24/45/28 52/93/56
f 23/41/26 16/29/19 18/32/16 27/42/27
f 27/48/27 18/26/16 15/25/15 24/45/28
f 50/85/50 30/53/33 32/56/30 53/86/51
f 53/92/51 32/50/30 29/49/29 51/89/54
f 2/5/5 23/41/26 25/44/23 6/6/6
f 6/12/6 25/38/23 22/37/22 3/9/7
f 29/49/29 3/9/7 22/37/22
f 38/69/42 10/21/14 1/1/1
f 38/69/42 1/1/1 31/57/35
f 9/17/12 23/41/26 2/5/5
f 9/17/12 16/29/19 23/41/26
f 45/81/49 17/33/21 8/13/8
f 45/81/49 8/13/8 37/65/40
f 52/93/56 24/45/28 15/25/15
f 52/93/56 15/25/15 44/77/47
f 29/49/29 22/37/22 51/89/54
f 43/73/43 30/53/33 50/85/50
f 43/73/43 36/61/36 30/53/33
