# Blender 4.5.1 LTS
# www.blender.org
mtllib RightLeg.mtl
o RightLeg
v 0.000000 0.072000 0.464000
v 0.060000 0.000000 0.440000
v 0.036923 0.071538 0.500000
v 0.017761 0.020938 0.451043
v 0.020655 0.030333 0.479527
v 0.049350 0.020809 0.482245
v 0.010804 0.071772 0.489440
v 0.036000 0.072000 -0.500000
v 0.060000 -0.000000 -0.440000
v 0.000000 0.071538 -0.463077
v 0.048957 0.020938 -0.482239
v 0.020473 0.030333 -0.479346
v 0.017755 0.020809 -0.450650
v 0.010560 0.071772 -0.489196
v 1.000000 0.072000 -0.464000
v 0.940000 -0.000000 -0.440000
v 0.963077 0.071538 -0.500000
v 0.982239 0.020938 -0.451043
v 0.979345 0.030333 -0.479527
v 0.950650 0.020809 -0.482245
v 0.989196 0.071772 -0.489440
v 0.964000 0.072000 0.500000
v 0.940000 0.000000 0.440000
v 1.000000 0.071538 0.463077
v 0.951043 0.020938 0.482239
v 0.979527 0.030333 0.479346
v 0.982245 0.020809 0.450650
v 0.989440 0.071772 0.489196
v 0.036000 1.928000 0.500000
v 0.060000 2.000000 0.440000
v 0.000000 1.928462 0.463077
v 0.048957 1.979062 0.482239
v 0.020473 1.969667 0.479346
v 0.017755 1.979191 0.450650
v 0.010560 1.928228 0.489196
v 0.060000 2.000000 -0.440000
v 0.036923 1.928462 -0.500000
v 0.000000 1.928000 -0.464000
v 0.049350 1.979191 -0.482245
v 0.020655 1.969667 -0.479527
v 0.010804 1.928228 -0.489440
v 0.017761 1.979062 -0.451043
v 0.940000 2.000000 -0.440000
v 1.000000 1.928462 -0.463077
v 0.964000 1.928000 -0.500000
v 0.982245 1.979191 -0.450650
v 0.979527 1.969667 -0.479346
v 0.989440 1.928228 -0.489196
v 0.951043 1.979062 -0.482239
v 0.940000 2.000000 0.440000
v 0.963077 1.928462 0.500000
v 1.000000 1.928000 0.464000
v 0.950650 1.979191 0.482245
v 0.979345 1.969667 0.479527
v 0.989196 1.928228 0.489440
v 0.982239 1.979062 0.451043
vn -0.9691 -0.1677 0.1807
vn -0.7066 -0.6871 0.1690
vn -0.5852 -0.5565 0.5897
vn -0.6943 -0.1809 0.6965
vn -0.1914 -0.9627 0.1910
vn -0.1673 -0.6874 0.7067
vn -0.1779 -0.1685 0.9695
vn -0.1807 -0.1677 -0.9691
vn -0.1690 -0.6871 -0.7066
vn -0.5897 -0.5565 -0.5852
vn -0.6965 -0.1809 -0.6943
vn -0.1910 -0.9627 -0.1914
vn -0.7067 -0.6874 -0.1673
vn -0.9695 -0.1685 -0.1779
vn 0.9691 -0.1677 -0.1807
vn 0.7066 -0.6871 -0.1690
vn 0.5852 -0.5565 -0.5897
vn 0.6943 -0.1809 -0.6965
vn 0.1914 -0.9627 -0.1910
vn 0.1673 -0.6874 -0.7067
vn 0.1779 -0.1685 -0.9695
vn 0.1807 -0.1677 0.9691
vn 0.1690 -0.6871 0.7066
vn 0.5897 -0.5565 0.5852
vn 0.6965 -0.1809 0.6943
vn 0.1910 -0.9627 0.1914
vn 0.7067 -0.6874 0.1673
vn 0.9695 -0.1685 0.1779
vn -0.1807 0.1677 0.9691
vn -0.1690 0.6871 0.7066
vn -0.5897 0.5565 0.5852
vn -0.6965 0.1809 0.6943
vn -0.1910 0.9627 0.1914
vn -0.7067 0.6874 0.1673
vn -0.9695 0.1685 0.1779
vn -0.1914 0.9627 -0.1910
vn -0.1673 0.6874 -0.7067
vn -0.5852 0.5565 -0.5897
vn -0.7066 0.6871 -0.1690
vn -0.1779 0.1685 -0.9695
vn -0.6943 0.1809 -0.6965
vn -0.9691 0.1677 -0.1807
vn 0.1910 0.9627 -0.1914
vn 0.7067 0.6874 -0.1673
vn 0.5897 0.5565 -0.5852
vn 0.1690 0.6871 -0.7066
vn 0.9695 0.1685 -0.1779
vn 0.6965 0.1809 -0.6943
vn 0.1807 0.1677 -0.9691
vn 0.1914 0.9627 0.1910
vn 0.1673 0.6874 0.7067
vn 0.5852 0.5565 0.5897
vn 0.7066 0.6871 0.1690
vn 0.1779 0.1685 0.9695
vn 0.6943 0.1809 0.6965
vn 0.9691 0.1677 0.1807
vt 0.039579 0.160721
vt 0.040904 0.152943
vt 0.037990 0.152943
vt 0.035895 0.160696
vt 0.471828 0.137134
vt 0.472927 0.143534
vt 0.475887 0.143534
vt 0.478018 0.138313
vt 0.473923 0.159654
vt 0.477742 0.159680
vt 0.477742 0.155141
vt 0.472637 0.151818
vt 0.152933 0.160449
vt 0.154253 0.152657
vt 0.151351 0.152657
vt 0.149265 0.160425
vt 0.471828 0.043258
vt 0.478018 0.042123
vt 0.478018 0.039061
vt 0.472968 0.036858
vt 0.134440 0.160671
vt 0.138218 0.160696
vt 0.138218 0.156220
vt 0.133168 0.152943
vt 0.265379 0.159015
vt 0.266700 0.151118
vt 0.263797 0.151118
vt 0.261710 0.158989
vt 0.381052 0.043258
vt 0.379954 0.036858
vt 0.376994 0.036858
vt 0.374863 0.042080
vt 0.247396 0.160399
vt 0.251158 0.160425
vt 0.251158 0.155940
vt 0.246130 0.152657
vt 0.378015 0.159705
vt 0.379355 0.151818
vt 0.376409 0.151818
vt 0.374291 0.159680
vt 0.381052 0.137134
vt 0.374863 0.138270
vt 0.374863 0.141332
vt 0.379914 0.143534
vt 0.359881 0.158964
vt 0.363645 0.158989
vt 0.363645 0.154445
vt 0.358614 0.151118
vt 0.474018 0.363006
vt 0.472678 0.370893
vt 0.475625 0.370893
vt 0.477742 0.363031
vt 0.471317 0.384971
vt 0.477455 0.383838
vt 0.477455 0.380784
vt 0.472447 0.378586
vt 0.039673 0.361265
vt 0.035895 0.361240
vt 0.035895 0.365717
vt 0.040945 0.368993
vt 0.471317 0.478619
vt 0.472407 0.485004
vt 0.475342 0.485004
vt 0.477455 0.479795
vt 0.153027 0.361378
vt 0.149265 0.361353
vt 0.149265 0.365838
vt 0.154293 0.369121
vt 0.134534 0.361215
vt 0.133209 0.368993
vt 0.136123 0.368993
vt 0.138218 0.361240
vt 0.381294 0.478619
vt 0.375156 0.479753
vt 0.375156 0.482807
vt 0.380164 0.485004
vt 0.265473 0.362618
vt 0.261710 0.362593
vt 0.261710 0.367137
vt 0.266740 0.370464
vt 0.247490 0.361328
vt 0.246170 0.369121
vt 0.249072 0.369121
vt 0.251158 0.361353
vt 0.381294 0.384971
vt 0.380204 0.378586
vt 0.377269 0.378586
vt 0.375156 0.383796
vt 0.378110 0.363057
vt 0.374291 0.363031
vt 0.374291 0.367570
vt 0.379396 0.370893
vt 0.359975 0.362568
vt 0.358654 0.370464
vt 0.361558 0.370464
vt 0.363645 0.362593
s 1
usemtl LeftLeg.001
f 1/1/1 4/2/2 5/3/3 7/4/4
f 2/5/5 6/6/6 5/7/3 4/8/2
f 3/9/7 7/10/4 5/11/3 6/12/6
f 8/13/8 11/14/9 12/15/10 14/16/11
f 9/17/12 13/18/13 12/19/10 11/20/9
f 10/21/14 14/22/11 12/23/10 13/24/13
f 15/25/15 18/26/16 19/27/17 21/28/18
f 16/29/19 20/30/20 19/31/17 18/32/16
f 17/33/21 21/34/18 19/35/17 20/36/20
f 22/37/22 25/38/23 26/39/24 28/40/25
f 23/41/26 27/42/27 26/43/24 25/44/23
f 24/45/28 28/46/25 26/47/24 27/48/27
f 29/49/29 32/50/30 33/51/31 35/52/32
f 30/53/33 34/54/34 33/55/31 32/56/30
f 31/57/35 35/58/32 33/59/31 34/60/34
f 36/61/36 39/62/37 40/63/38 42/64/39
f 37/65/40 41/66/41 40/67/38 39/68/37
f 38/69/42 42/70/39 40/71/38 41/72/41
f 43/73/43 46/74/44 47/75/45 49/76/46
f 44/77/47 48/78/48 47/79/45 46/80/44
f 45/81/49 49/82/46 47/83/45 48/84/48
f 50/85/50 53/86/51 54/87/52 56/88/53
f 51/89/54 55/90/55 54/91/52 53/92/51
f 52/93/56 56/94/53 54/95/52 55/96/55
f 3/9/7 29/49/29 35/52/32 7/10/4
f 7/4/4 35/58/32 31/57/35 1/1/1
f 30/53/33 36/61/36 42/64/39 34/54/34
f 34/60/34 42/70/39 38/69/42 31/57/35
f 37/65/40 8/13/8 14/16/11 41/66/41
f 41/72/41 14/22/11 10/21/14 38/69/42
f 9/17/12 2/5/5 4/8/2 13/18/13
f 13/24/13 4/2/2 1/1/1 10/21/14
f 36/61/36 43/73/43 49/76/46 39/62/37
f 39/68/37 49/82/46 45/81/49 37/65/40
f 44/77/47 15/25/15 21/28/18 48/78/48
f 48/84/48 21/34/18 17/33/21 45/81/49
f 16/29/19 9/17/12 11/20/9 20/30/20
f 20/36/20 11/14/9 8/13/8 17/33/21
f 43/73/43 50/85/50 56/88/53 46/74/44
f 46/80/44 56/94/53 52/93/56 44/77/47
f 51/89/54 22/37/22 28/40/25 55/90/55
f 55/96/55 28/46/25 24/45/28 52/93/56
f 23/41/26 16/29/19 18/32/16 27/42/27
f 27/48/27 18/26/16 15/25/15 24/45/28
f 50/85/50 30/53/33 32/56/30 53/86/51
f 53/92/51 32/50/30 29/49/29 51/89/54
f 2/5/5 23/41/26 25/44/23 6/6/6
f 6/12/6 25/38/23 22/37/22 3/9/7
f 29/49/29 3/9/7 22/37/22
f 38/69/42 10/21/14 1/1/1
f 38/69/42 1/1/1 31/57/35
f 9/17/12 23/41/26 2/5/5
f 9/17/12 16/29/19 23/41/26
f 45/81/49 17/33/21 8/13/8
f 45/81/49 8/13/8 37/65/40
f 52/93/56 24/45/28 15/25/15
f 52/93/56 15/25/15 44/77/47
f 29/49/29 22/37/22 51/89/54
f 43/73/43 30/53/33 50/85/50
f 43/73/43 36/61/36 30/53/33
