# Blender 4.5.1 LTS
# www.blender.org
mtllib Torso.mtl
o Torso
v -1.000000 2.072000 0.464000
v -0.928462 2.000000 0.463077
v -0.940000 2.060000 0.500000
v -0.979039 2.021083 0.463537
v -0.971980 2.028137 0.484590
v -0.933083 2.017247 0.488885
v -0.982766 2.067246 0.489151
v -0.940000 2.060000 -0.500000
v -0.928000 2.000000 -0.464000
v -1.000000 2.071538 -0.463077
v -0.932754 2.017234 -0.489151
v -0.971863 2.028020 -0.484590
v -0.978917 2.020961 -0.463537
v -0.982753 2.066917 -0.488885
v 1.000000 2.072000 -0.464000
v 0.928462 2.000000 -0.463077
v 0.940000 2.060000 -0.500000
v 0.979039 2.021083 -0.463537
v 0.971980 2.028137 -0.484590
v 0.933083 2.017247 -0.488885
v 0.982766 2.067246 -0.489151
v 0.940000 2.060000 0.500000
v 0.928000 2.000000 0.464000
v 1.000000 2.071538 0.463077
v 0.932754 2.017234 0.489151
v 0.971863 2.028020 0.484590
v 0.978917 2.020961 0.463537
v 0.982753 2.066917 0.488885
v -0.940000 3.940000 0.500000
v -0.928000 4.000000 0.464000
v -1.000000 3.928462 0.463077
v -0.932754 3.982766 0.489151
v -0.971863 3.971980 0.484590
v -0.978917 3.979039 0.463537
v -0.982753 3.933083 0.488885
v -0.928462 4.000000 -0.463077
v -0.940000 3.940000 -0.500000
v -1.000000 3.928000 -0.464000
v -0.933083 3.982753 -0.488885
v -0.971980 3.971863 -0.484590
v -0.982766 3.932754 -0.489151
v -0.979039 3.978917 -0.463537
v 0.928000 4.000000 -0.464000
v 1.000000 3.928462 -0.463077
v 0.940000 3.940000 -0.500000
v 0.978917 3.979039 -0.463537
v 0.971863 3.971980 -0.484590
v 0.982753 3.933083 -0.488885
v 0.932754 3.982766 -0.489151
v 0.928462 4.000000 0.463077
v 0.940000 3.940000 0.500000
v 1.000000 3.928000 0.464000
v 0.933083 3.982753 0.488885
v 0.971980 3.971863 0.484590
v 0.982766 3.932754 0.489151
v 0.979039 3.978917 0.463537
vn -0.9491 -0.1714 0.2642
vn -0.6864 -0.6873 0.2375
vn -0.5032 -0.5053 0.7010
vn -0.5994 -0.1499 0.7863
vn -0.1719 -0.9497 0.2618
vn -0.1488 -0.6015 0.7849
vn -0.1245 -0.1258 0.9842
vn -0.1258 -0.1245 -0.9842
vn -0.1499 -0.5994 -0.7863
vn -0.5053 -0.5032 -0.7010
vn -0.6015 -0.1488 -0.7849
vn -0.1714 -0.9491 -0.2642
vn -0.6873 -0.6864 -0.2375
vn -0.9497 -0.1719 -0.2618
vn 0.9491 -0.1714 -0.2642
vn 0.6864 -0.6873 -0.2375
vn 0.5032 -0.5053 -0.7010
vn 0.5994 -0.1499 -0.7863
vn 0.1719 -0.9497 -0.2618
vn 0.1488 -0.6015 -0.7849
vn 0.1245 -0.1258 -0.9842
vn 0.1258 -0.1245 0.9842
vn 0.1499 -0.5994 0.7863
vn 0.5053 -0.5032 0.7010
vn 0.6015 -0.1488 0.7849
vn 0.1714 -0.9491 0.2642
vn 0.6873 -0.6864 0.2375
vn 0.9497 -0.1719 0.2618
vn -0.1258 0.1245 0.9842
vn -0.1499 0.5994 0.7863
vn -0.5053 0.5032 0.7011
vn -0.6015 0.1488 0.7849
vn -0.1714 0.9491 0.2642
vn -0.6873 0.6864 0.2375
vn -0.9497 0.1719 0.2618
vn -0.1719 0.9497 -0.2618
vn -0.1488 0.6015 -0.7849
vn -0.5032 0.5053 -0.7010
vn -0.6864 0.6873 -0.2375
vn -0.1245 0.1258 -0.9842
vn -0.5994 0.1499 -0.7863
vn -0.9491 0.1714 -0.2642
vn 0.1714 0.9491 -0.2642
vn 0.6873 0.6864 -0.2375
vn 0.5053 0.5032 -0.7011
vn 0.1499 0.5994 -0.7863
vn 0.9497 0.1719 -0.2618
vn 0.6015 0.1488 -0.7849
vn 0.1258 0.1245 -0.9842
vn 0.1719 0.9497 0.2618
vn 0.1488 0.6015 0.7849
vn 0.5032 0.5053 0.7010
vn 0.6864 0.6873 0.2375
vn 0.1245 0.1258 0.9842
vn 0.5994 0.1499 0.7863
vn 0.9491 0.1714 0.2642
vt 0.297319 0.644351
vt 0.297271 0.636522
vt 0.299451 0.636522
vt 0.301046 0.643834
vt 0.317837 0.621715
vt 0.317346 0.625655
vt 0.313207 0.625655
vt 0.310226 0.621764
vt 0.316319 0.642288
vt 0.309941 0.643077
vt 0.309941 0.638822
vt 0.317054 0.635761
vt 0.852022 0.642141
vt 0.851253 0.635550
vt 0.855403 0.635550
vt 0.858389 0.642901
vt 0.317887 0.522785
vt 0.310226 0.522834
vt 0.310226 0.520588
vt 0.317381 0.518943
vt 0.201340 0.644300
vt 0.197518 0.643798
vt 0.197518 0.639569
vt 0.201293 0.636522
vt 0.632267 0.644952
vt 0.632220 0.637187
vt 0.634391 0.637187
vt 0.635980 0.644439
vt 0.515400 0.522883
vt 0.515892 0.518943
vt 0.520030 0.518943
vt 0.523011 0.522834
vt 0.652526 0.642141
vt 0.646160 0.642937
vt 0.646160 0.638641
vt 0.653261 0.635550
vt 0.516171 0.642288
vt 0.515401 0.635761
vt 0.519558 0.635761
vt 0.522549 0.643041
vt 0.515351 0.621813
vt 0.523011 0.621764
vt 0.523011 0.624011
vt 0.515857 0.625655
vt 0.536645 0.644902
vt 0.532837 0.644403
vt 0.532837 0.640209
vt 0.536598 0.637187
vt 0.316319 0.846823
vt 0.317089 0.853351
vt 0.312932 0.853351
vt 0.309941 0.846070
vt 0.318598 0.869473
vt 0.311024 0.869521
vt 0.311024 0.867323
vt 0.318098 0.865713
vt 0.297224 0.846198
vt 0.301046 0.846701
vt 0.301046 0.850930
vt 0.297271 0.853977
vt 0.318549 0.966295
vt 0.318063 0.970151
vt 0.313972 0.970151
vt 0.311024 0.966343
vt 0.852022 0.848652
vt 0.858389 0.847856
vt 0.858389 0.852152
vt 0.851288 0.855242
vt 0.201245 0.846148
vt 0.201293 0.853977
vt 0.199113 0.853977
vt 0.197518 0.846665
vt 0.513826 0.966391
vt 0.521400 0.966343
vt 0.521400 0.968542
vt 0.514326 0.970151
vt 0.632172 0.845166
vt 0.635980 0.845664
vt 0.635980 0.849859
vt 0.632220 0.852881
vt 0.652526 0.848652
vt 0.653295 0.855242
vt 0.649145 0.855242
vt 0.646160 0.847892
vt 0.513875 0.869569
vt 0.514361 0.865713
vt 0.518453 0.865713
vt 0.521400 0.869521
vt 0.516171 0.846823
vt 0.522549 0.846034
vt 0.522549 0.850289
vt 0.515436 0.853351
vt 0.536550 0.845116
vt 0.536598 0.852881
vt 0.534427 0.852881
vt 0.532837 0.845629
s 1
usemtl Torso
f 1/1/1 4/2/2 5/3/3 7/4/4
f 2/5/5 6/6/6 5/7/3 4/8/2
f 3/9/7 7/10/4 5/11/3 6/12/6
f 8/13/8 11/14/9 12/15/10 14/16/11
f 9/17/12 13/18/13 12/19/10 11/20/9
f 10/21/14 14/22/11 12/23/10 13/24/13
f 15/25/15 18/26/16 19/27/17 21/28/18
f 16/29/19 20/30/20 19/31/17 18/32/16
f 17/33/21 21/34/18 19/35/17 20/36/20
f 22/37/22 25/38/23 26/39/24 28/40/25
f 23/41/26 27/42/27 26/43/24 25/44/23
f 24/45/28 28/46/25 26/47/24 27/48/27
f 29/49/29 32/50/30 33/51/31 35/52/32
f 30/53/33 34/54/34 33/55/31 32/56/30
f 31/57/35 35/58/32 33/59/31 34/60/34
f 36/61/36 39/62/37 40/63/38 42/64/39
f 37/65/40 41/66/41 40/67/38 39/68/37
f 38/69/42 42/70/39 40/71/38 41/72/41
f 43/73/43 46/74/44 47/75/45 49/76/46
f 44/77/47 48/78/48 47/79/45 46/80/44
f 45/81/49 49/82/46 47/83/45 48/84/48
f 50/85/50 53/86/51 54/87/52 56/88/53
f 51/89/54 55/90/55 54/91/52 53/92/51
f 52/93/56 56/94/53 54/95/52 55/96/55
f 3/9/7 29/49/29 35/52/32 7/10/4
f 7/4/4 35/58/32 31/57/35 1/1/1
f 30/53/33 36/61/36 42/64/39 34/54/34
f 34/60/34 42/70/39 38/69/42 31/57/35
f 37/65/40 8/13/8 14/16/11 41/66/41
f 41/72/41 14/22/11 10/21/14 38/69/42
f 9/17/12 2/5/5 4/8/2 13/18/13
f 13/24/13 4/2/2 1/1/1 10/21/14
f 36/61/36 43/73/43 49/76/46 39/62/37
f 39/68/37 49/82/46 45/81/49 37/65/40
f 44/77/47 15/25/15 21/28/18 48/78/48
f 48/84/48 21/34/18 17/33/21 45/81/49
f 16/29/19 9/17/12 11/20/9 20/30/20
f 20/36/20 11/14/9 8/13/8 17/33/21
f 43/73/43 50/85/50 56/88/53 46/74/44
f 46/80/44 56/94/53 52/93/56 44/77/47
f 51/89/54 22/37/22 28/40/25 55/90/55
f 55/96/55 28/46/25 24/45/28 52/93/56
f 23/41/26 16/29/19 18/32/16 27/42/27
f 27/48/27 18/26/16 15/25/15 24/45/28
f 50/85/50 30/53/33 32/56/30 53/86/51
f 53/92/51 32/50/30 29/49/29 51/89/54
f 2/5/5 23/41/26 25/44/23 6/6/6
f 6/12/6 25/38/23 22/37/22 3/9/7
f 29/49/29 3/9/7 22/37/22
f 38/69/42 10/21/14 1/1/1
f 38/69/42 1/1/1 31/57/35
f 9/17/12 23/41/26 2/5/5
f 9/17/12 16/29/19 23/41/26
f 45/81/49 17/33/21 8/13/8
f 45/81/49 8/13/8 37/65/40
f 52/93/56 24/45/28 15/25/15
f 52/93/56 15/25/15 44/77/47
f 29/49/29 22/37/22 51/89/54
f 43/73/43 30/53/33 50/85/50
f 43/73/43 36/61/36 30/53/33
